# xmcd
#
# Track frame offsets:
#	150
#	15750
#	29100
#	47925
#	69150
#	85650
#	101250
#	114975
#	125775
#	143775
#	156600
#	171675
#	186450
#	202350
#	220425
#	231150
#	248475
#	262875
#
# Disc length: 3726 seconds
#
# Revision: 1
# Processed by: cddbd v1.5.1PL2 Copyright (c) Steve Scherf et al.
# Submitted via: audiograbber 1.83.01
#
DISCID=0b0e8c12
DTITLE=Pioneer - P204
DYEAR=1900
DGENRE=Karaoke Country
TTITLE0=Brooks and Dunn - Boot Scootin' Boogie
TTITLE1=Tritt, Travis - Here'S A Quarter (Call Someone Who Cares)
TTITLE2=Pirates Of The Mississippi - Feed Jake
TTITLE3=Williams, Hank Jr. - A Country Boy Can Survive
TTITLE4=Dunn, Holly - Daddy'S Hands
TTITLE5=Tucker, Tanya - Down To My Last Teardrop
TTITLE6=Sheppard, T.G - I Loved 'Em Every One
TTITLE7=Haggard, Merle - I Think I'Ll Just Stay Here And Drink
TTITLE8=Rogers, Kenny - Lady
TTITLE9=Fargo, Donna - Happiest Girl In The Whole U.S.A
TTITLE10=Davis Sisters - I Forgot More Than You'Ll Ever Know
TTITLE11=Forester Sisters - Men
TTITLE12=Bellamy Brothers - Redneck Girl
TTITLE13=Frizell, David - I'M Gonna Hire A Wino To Decorate Our Home
TTITLE14=Pride, Charlie - Kiss An Angel Good Mornin'
TTITLE15=Parton, Dolly - Real Love
TTITLE16=Highway 101 - Whiskey, If You Were A Woman
TTITLE17=Judds - Why Not Me
EXTD=
EXTT0=
EXTT1=
EXTT2=
EXTT3=
EXTT4=
EXTT5=
EXTT6=
EXTT7=
EXTT8=
EXTT9=
EXTT10=
EXTT11=
EXTT12=
EXTT13=
EXTT14=
EXTT15=
EXTT16=
EXTT17=
PLAYORDER=
